<svg width="48" height="48" viewBox="0 0 48 48" fill="none" xmlns="http://www.w3.org/2000/svg"><rect width="48" height="48" rx="24" fill="#1F1F1F"/><path d="M24 16c1.257 0 1.886 0 2.276.39.39.391.39 1.02.39 2.277v10.666c0 1.257 0 1.886-.39 2.277-.39.39-1.019.39-2.276.39m0-16c-1.257 0-1.886 0-2.276.39-.39.391-.39 1.02-.39 2.277v10.666c0 1.257 0 1.886.39 2.277.39.39 1.019.39 2.276.39m0-16v-4m0 20v4m9.333-21.333c1.257 0 1.886 0 2.276.39.391.39.391 1.02.391 2.276V20c0 1.257 0 1.886-.39 2.276-.391.39-1.02.39-2.277.39m0-8c-1.257 0-1.885 0-2.276.391-.39.39-.39 1.02-.39 2.276V20c0 1.257 0 1.886.39 2.276s1.02.39 2.276.39m0-8V12m0 10.667v2.666m-18.666-4c1.257 0 1.885 0 2.276.39.39.391.39 1.02.39 2.277v2.667c0 1.257 0 1.885-.39 2.276s-1.02.39-2.276.39m0-8c-1.257 0-1.886 0-2.277.39C12 22.115 12 22.744 12 24v2.667c0 1.257 0 1.885.39 2.276.391.39 1.02.39 2.277.39m0-8v-2.666m0 10.666V32" stroke="#A944F8" stroke-width="1.5" stroke-linecap="round" stroke-linejoin="round"/></svg>