<svg width="48" height="48" viewBox="0 0 48 48" fill="none" xmlns="http://www.w3.org/2000/svg"><rect width="48" height="48" rx="24" fill="#1F1F1F"/><path d="M23.914 22.765c0 .96.598 2.514 1.877 3.6 1.922 1.632 2.883 2.449 3.075 2.75.22.345.174.244.29.643.1.349.1.848.1 1.848v.096c0 .235 0 .353.02.465q.044.246.176.454c.06.094.138.177.293.343.77.818 1.154 1.227 1.227 1.567.105.496-.09 1.01-.49 1.282-.273.187-.813.187-1.894.187h-8.62c-1.121 0-1.682 0-1.962-.199a1.24 1.24 0 0 1-.475-1.255c.071-.352.473-.774 1.275-1.619.162-.171.244-.257.306-.354.085-.134.144-.285.173-.444.022-.116.022-.238.022-.483v-3.187c0-.854.023-.815-.542-1.605-3.282-4.593-1.563-9.053 1.694-10.778 0-2.094 1.106-3.22 2.169-3.782.492-.26.738-.39 1.012-.213.642.415.602 2.319.274 3.519 1.409 0 2.557 1.2 2.557 2.4l2.182 2.267c.402.492.8 1.008.495 1.694-.196.443-.664.832-1.004 1.156-.44.419-1.11.419-1.55 0-.4-.38-.694-.698-1.271-.583-.47.095-.926.259-1.41.231m0 0c-.647-.037-1.411-.346-2.223-1.165m-2.358 10.8h9.334" stroke="#A944F8" stroke-width="1.5" stroke-linecap="round" stroke-linejoin="round"/></svg>