<svg width="48" height="48" viewBox="0 0 48 48" fill="none" xmlns="http://www.w3.org/2000/svg"><rect width="48" height="48" rx="24" fill="#1F1F1F"/><path d="M30.353 12h4.235v4m-.706-3.333S28.235 19.333 13.412 24M36 22v12c0 .621 0 .932-.107 1.177a1.38 1.38 0 0 1-.764.721c-.26.102-.589.102-1.247.102-.657 0-.986 0-1.246-.102a1.38 1.38 0 0 1-.764-.721c-.107-.245-.107-.556-.107-1.177V22c0-.621 0-.932.107-1.177a1.37 1.37 0 0 1 .764-.721c.26-.102.589-.102 1.246-.102.658 0 .987 0 1.247.102.345.135.62.394.764.721C36 21.068 36 21.38 36 22m-9.882 4.667V34c0 .621 0 .932-.108 1.177a1.38 1.38 0 0 1-.764.721C24.986 36 24.658 36 24 36s-.987 0-1.246-.102a1.38 1.38 0 0 1-.764-.721c-.108-.245-.108-.556-.108-1.177v-7.333c0-.622 0-.932.108-1.177.143-.327.418-.586.764-.722.26-.101.588-.101 1.246-.101s.987 0 1.246.101c.346.136.62.395.764.722.108.245.108.556.108 1.177M16.235 30v4c0 .621 0 .932-.107 1.177a1.38 1.38 0 0 1-.764.721c-.26.102-.589.102-1.246.102-.658 0-.987 0-1.247-.102a1.38 1.38 0 0 1-.764-.721C12 34.932 12 34.62 12 34v-4c0-.621 0-.932.107-1.177.144-.327.419-.586.765-.721C13.13 28 13.46 28 14.118 28c.657 0 .986 0 1.246.102.346.135.62.394.764.721.107.245.107.556.107 1.177" stroke="#A944F8" stroke-width="1.5" stroke-linecap="round" stroke-linejoin="round"/></svg>